<svg width="223" height="321" viewBox="0 0 223 321" fill="none" xmlns="http://www.w3.org/2000/svg">
<path d="M-30 78.6906C-30 69.4785 -23.7077 61.458 -14.7603 59.2654L190.152 9.04972C204.926 5.42929 218.173 18.9723 214.228 33.6625L155.816 251.153C153.794 258.681 147.583 264.349 139.902 265.674L-6.59827 290.961C-18.8231 293.071 -30 283.658 -30 271.252V78.6906Z" fill="url(#paint0_linear_15_90)"/>
<path d="M48 200.177C48 190.963 54.2943 182.942 63.2435 180.751L164.15 156.043C178.924 152.426 192.169 165.972 188.221 180.661L158.799 290.119C156.775 297.646 150.564 303.312 142.883 304.637L71.399 316.965C59.175 319.073 48 309.66 48 297.256V200.177Z" fill="#FFD233"/>
<path d="M80.5 0L83.98 10.7102H95.2414L86.1307 17.3295L89.6107 28.0398L80.5 21.4205L71.3893 28.0398L74.8693 17.3295L65.7586 10.7102H77.02L80.5 0Z" fill="#FFD233"/>
<defs>
<linearGradient id="paint0_linear_15_90" x1="-30" y1="1" x2="260.715" y2="251.173" gradientUnits="userSpaceOnUse">
<stop stop-color="#92FFC0"/>
<stop offset="1" stop-color="#002661"/>
</linearGradient>
</defs>
</svg>
